{
    "asset" : {
        "generator" : "Khronos glTF Blender I/O v1.5.17",
        "version" : "2.0"
    },
    "scene" : 0,
    "scenes" : [
        {
            "name" : "Scene",
            "nodes" : [
                0,
                3,
                4,
                7
            ]
        }
    ],
    "nodes" : [
        {
            "name" : "Camera",
            "rotation" : [
                0.7128162384033203,
                -0.18289585411548615,
                0.20170709490776062,
                0.6463407874107361
            ],
            "translation" : [
                -7.230247974395752,
                -0.29522520303726196,
                6.294445514678955
            ]
        },
        {
            "mesh" : 0,
            "name" : "Cornice",
            "scale" : [
                1.3023021221160889,
                1.3023021221160889,
                0.09022797644138336
            ],
            "translation" : [
                0.01028064638376236,
                -0.07375793904066086,
                0.7939921617507935
            ]
        },
        {
            "mesh" : 1,
            "name" : "Cuore",
            "rotation" : [
                -1,
                0,
                0,
                1.492994670115877e-07
            ],
            "scale" : [
                0.303711861371994,
                0.2338581383228302,
                5.846452236175537
            ],
            "translation" : [
                0.00579477334395051,
                0.4970968961715698,
                0.6452658772468567
            ]
        },
        {
            "children" : [
                1,
                2
            ],
            "mesh" : 2,
            "name" : "FollowerShield",
            "scale" : [
                0.030219435691833496,
                0.03924602270126343,
                0.001569841057062149
            ]
        },
        {
            "name" : "Light",
            "rotation" : [
                0.16907575726509094,
                0.7558803558349609,
                -0.27217137813568115,
                0.570947527885437
            ],
            "translation" : [
                3.1870105266571045,
                3.6028432846069336,
                5.748044013977051
            ]
        },
        {
            "mesh" : 3,
            "name" : "Cornice.001",
            "scale" : [
                1.3023021221160889,
                1.3023021221160889,
                0.09022797644138336
            ],
            "translation" : [
                0.01028064638376236,
                -0.07375793904066086,
                0.7939921617507935
            ]
        },
        {
            "mesh" : 4,
            "name" : "Stella",
            "rotation" : [
                0,
                -0.0226576030254364,
                0,
                0.9997432827949524
            ],
            "scale" : [
                0.9826384782791138,
                0.753547728061676,
                18.838481903076172
            ],
            "translation" : [
                0.01642116904258728,
                0.43218183517456055,
                1.6468149423599243
            ]
        },
        {
            "children" : [
                5,
                6
            ],
            "mesh" : 5,
            "name" : "SubscriberShield",
            "scale" : [
                0.030219435691833496,
                0.03924602270126343,
                0.001569841057062149
            ]
        }
    ],
    "animations" : [
        {
            "channels" : [
                {
                    "sampler" : 0,
                    "target" : {
                        "node" : 3,
                        "path" : "scale"
                    }
                },
                {
                    "sampler" : 1,
                    "target" : {
                        "node" : 3,
                        "path" : "rotation"
                    }
                }
            ],
            "name" : "FollowerAnimation",
            "samplers" : [
                {
                    "input" : 22,
                    "interpolation" : "LINEAR",
                    "output" : 23
                },
                {
                    "input" : 24,
                    "interpolation" : "LINEAR",
                    "output" : 25
                }
            ]
        },
        {
            "channels" : [
                {
                    "sampler" : 0,
                    "target" : {
                        "node" : 7,
                        "path" : "scale"
                    }
                },
                {
                    "sampler" : 1,
                    "target" : {
                        "node" : 7,
                        "path" : "rotation"
                    }
                }
            ],
            "name" : "SubscriberAnimation",
            "samplers" : [
                {
                    "input" : 22,
                    "interpolation" : "LINEAR",
                    "output" : 26
                },
                {
                    "input" : 24,
                    "interpolation" : "LINEAR",
                    "output" : 27
                }
            ]
        }
    ],
    "materials" : [
        {
            "doubleSided" : true,
            "name" : "Silver",
            "pbrMetallicRoughness" : {
                "baseColorFactor" : [
                    0.5571041107177734,
                    0.6258650422096252,
                    0.4482206702232361,
                    1
                ],
                "roughnessFactor" : 0.05909092724323273
            }
        },
        {
            "doubleSided" : true,
            "name" : "Material",
            "pbrMetallicRoughness" : {
                "baseColorFactor" : [
                    0.008865980431437492,
                    0.03662177547812462,
                    0.31703081727027893,
                    1
                ],
                "metallicFactor" : 0
            }
        },
        {
            "doubleSided" : true,
            "name" : "Gold.001",
            "pbrMetallicRoughness" : {
                "baseColorFactor" : [
                    0.8000000715255737,
                    0.35682806372642517,
                    0,
                    1
                ],
                "roughnessFactor" : 0.1409091055393219
            }
        },
        {
            "doubleSided" : true,
            "name" : "Gold",
            "pbrMetallicRoughness" : {
                "baseColorFactor" : [
                    0.8000000715255737,
                    0.35682806372642517,
                    0,
                    1
                ],
                "roughnessFactor" : 0.1409091055393219
            }
        },
        {
            "doubleSided" : true,
            "name" : "Material.002",
            "pbrMetallicRoughness" : {
                "metallicFactor" : 0,
                "roughnessFactor" : 0.8227273225784302
            }
        }
    ],
    "meshes" : [
        {
            "name" : "Cube.005",
            "primitives" : [
                {
                    "attributes" : {
                        "POSITION" : 0,
                        "NORMAL" : 1,
                        "TEXCOORD_0" : 2
                    },
                    "indices" : 3,
                    "material" : 0
                }
            ]
        },
        {
            "name" : "Cylinder.001",
            "primitives" : [
                {
                    "attributes" : {
                        "POSITION" : 4,
                        "NORMAL" : 5,
                        "TEXCOORD_0" : 6
                    },
                    "indices" : 7,
                    "material" : 0
                }
            ]
        },
        {
            "name" : "Cube",
            "primitives" : [
                {
                    "attributes" : {
                        "POSITION" : 8,
                        "NORMAL" : 9,
                        "TEXCOORD_0" : 10
                    },
                    "indices" : 11,
                    "material" : 1
                }
            ]
        },
        {
            "name" : "Cube.003",
            "primitives" : [
                {
                    "attributes" : {
                        "POSITION" : 12,
                        "NORMAL" : 13,
                        "TEXCOORD_0" : 14
                    },
                    "indices" : 3,
                    "material" : 2
                }
            ]
        },
        {
            "name" : "Circle",
            "primitives" : [
                {
                    "attributes" : {
                        "POSITION" : 15,
                        "NORMAL" : 16,
                        "TEXCOORD_0" : 17
                    },
                    "indices" : 18,
                    "material" : 3
                }
            ]
        },
        {
            "name" : "Cube.002",
            "primitives" : [
                {
                    "attributes" : {
                        "POSITION" : 19,
                        "NORMAL" : 20,
                        "TEXCOORD_0" : 21
                    },
                    "indices" : 11,
                    "material" : 4
                }
            ]
        }
    ],
    "accessors" : [
        {
            "bufferView" : 0,
            "componentType" : 5126,
            "count" : 108,
            "max" : [
                0.6946102976799011,
                0.732715904712677,
                8.089242935180664
            ],
            "min" : [
                -0.6946102976799011,
                -0.9155227541923523,
                -8.128341674804688
            ],
            "type" : "VEC3"
        },
        {
            "bufferView" : 1,
            "componentType" : 5126,
            "count" : 108,
            "type" : "VEC3"
        },
        {
            "bufferView" : 2,
            "componentType" : 5126,
            "count" : 108,
            "type" : "VEC2"
        },
        {
            "bufferView" : 3,
            "componentType" : 5123,
            "count" : 204,
            "type" : "SCALAR"
        },
        {
            "bufferView" : 4,
            "componentType" : 5126,
            "count" : 480,
            "max" : [
                0.7213990688323975,
                1.0760085582733154,
                0.05713733285665512
            ],
            "min" : [
                -0.7213976979255676,
                -0.6321954727172852,
                -0.20739519596099854
            ],
            "type" : "VEC3"
        },
        {
            "bufferView" : 5,
            "componentType" : 5126,
            "count" : 480,
            "type" : "VEC3"
        },
        {
            "bufferView" : 6,
            "componentType" : 5126,
            "count" : 480,
            "type" : "VEC2"
        },
        {
            "bufferView" : 7,
            "componentType" : 5123,
            "count" : 948,
            "type" : "SCALAR"
        },
        {
            "bufferView" : 8,
            "componentType" : 5126,
            "count" : 96,
            "max" : [
                1,
                1,
                1
            ],
            "min" : [
                -1,
                -1.4748528003692627,
                -1
            ],
            "type" : "VEC3"
        },
        {
            "bufferView" : 9,
            "componentType" : 5126,
            "count" : 96,
            "type" : "VEC3"
        },
        {
            "bufferView" : 10,
            "componentType" : 5126,
            "count" : 96,
            "type" : "VEC2"
        },
        {
            "bufferView" : 11,
            "componentType" : 5123,
            "count" : 144,
            "type" : "SCALAR"
        },
        {
            "bufferView" : 12,
            "componentType" : 5126,
            "count" : 108,
            "max" : [
                0.6946102976799011,
                0.732715904712677,
                8.089242935180664
            ],
            "min" : [
                -0.6946102976799011,
                -0.9155227541923523,
                -8.128341674804688
            ],
            "type" : "VEC3"
        },
        {
            "bufferView" : 13,
            "componentType" : 5126,
            "count" : 108,
            "type" : "VEC3"
        },
        {
            "bufferView" : 14,
            "componentType" : 5126,
            "count" : 108,
            "type" : "VEC2"
        },
        {
            "bufferView" : 15,
            "componentType" : 5126,
            "count" : 60,
            "max" : [
                0.2814439535140991,
                0.29592788219451904,
                0.02693772315979004
            ],
            "min" : [
                -0.28144359588623047,
                -0.23941004276275635,
                -0.02693784236907959
            ],
            "type" : "VEC3"
        },
        {
            "bufferView" : 16,
            "componentType" : 5126,
            "count" : 60,
            "type" : "VEC3"
        },
        {
            "bufferView" : 17,
            "componentType" : 5126,
            "count" : 60,
            "type" : "VEC2"
        },
        {
            "bufferView" : 18,
            "componentType" : 5123,
            "count" : 108,
            "type" : "SCALAR"
        },
        {
            "bufferView" : 19,
            "componentType" : 5126,
            "count" : 96,
            "max" : [
                1,
                1,
                1
            ],
            "min" : [
                -1,
                -1.4748528003692627,
                -1
            ],
            "type" : "VEC3"
        },
        {
            "bufferView" : 20,
            "componentType" : 5126,
            "count" : 96,
            "type" : "VEC3"
        },
        {
            "bufferView" : 21,
            "componentType" : 5126,
            "count" : 96,
            "type" : "VEC2"
        },
        {
            "bufferView" : 22,
            "componentType" : 5126,
            "count" : 134,
            "max" : [
                5.541666666666667
            ],
            "min" : [
                0
            ],
            "type" : "SCALAR"
        },
        {
            "bufferView" : 23,
            "componentType" : 5126,
            "count" : 134,
            "type" : "VEC3"
        },
        {
            "bufferView" : 24,
            "componentType" : 5126,
            "count" : 142,
            "max" : [
                5.875
            ],
            "min" : [
                0
            ],
            "type" : "SCALAR"
        },
        {
            "bufferView" : 25,
            "componentType" : 5126,
            "count" : 142,
            "type" : "VEC4"
        },
        {
            "bufferView" : 26,
            "componentType" : 5126,
            "count" : 134,
            "type" : "VEC3"
        },
        {
            "bufferView" : 27,
            "componentType" : 5126,
            "count" : 142,
            "type" : "VEC4"
        }
    ],
    "bufferViews" : [
        {
            "buffer" : 0,
            "byteLength" : 1296,
            "byteOffset" : 0
        },
        {
            "buffer" : 0,
            "byteLength" : 1296,
            "byteOffset" : 1296
        },
        {
            "buffer" : 0,
            "byteLength" : 864,
            "byteOffset" : 2592
        },
        {
            "buffer" : 0,
            "byteLength" : 408,
            "byteOffset" : 3456
        },
        {
            "buffer" : 0,
            "byteLength" : 5760,
            "byteOffset" : 3864
        },
        {
            "buffer" : 0,
            "byteLength" : 5760,
            "byteOffset" : 9624
        },
        {
            "buffer" : 0,
            "byteLength" : 3840,
            "byteOffset" : 15384
        },
        {
            "buffer" : 0,
            "byteLength" : 1896,
            "byteOffset" : 19224
        },
        {
            "buffer" : 0,
            "byteLength" : 1152,
            "byteOffset" : 21120
        },
        {
            "buffer" : 0,
            "byteLength" : 1152,
            "byteOffset" : 22272
        },
        {
            "buffer" : 0,
            "byteLength" : 768,
            "byteOffset" : 23424
        },
        {
            "buffer" : 0,
            "byteLength" : 288,
            "byteOffset" : 24192
        },
        {
            "buffer" : 0,
            "byteLength" : 1296,
            "byteOffset" : 24480
        },
        {
            "buffer" : 0,
            "byteLength" : 1296,
            "byteOffset" : 25776
        },
        {
            "buffer" : 0,
            "byteLength" : 864,
            "byteOffset" : 27072
        },
        {
            "buffer" : 0,
            "byteLength" : 720,
            "byteOffset" : 27936
        },
        {
            "buffer" : 0,
            "byteLength" : 720,
            "byteOffset" : 28656
        },
        {
            "buffer" : 0,
            "byteLength" : 480,
            "byteOffset" : 29376
        },
        {
            "buffer" : 0,
            "byteLength" : 216,
            "byteOffset" : 29856
        },
        {
            "buffer" : 0,
            "byteLength" : 1152,
            "byteOffset" : 30072
        },
        {
            "buffer" : 0,
            "byteLength" : 1152,
            "byteOffset" : 31224
        },
        {
            "buffer" : 0,
            "byteLength" : 768,
            "byteOffset" : 32376
        },
        {
            "buffer" : 0,
            "byteLength" : 536,
            "byteOffset" : 33144
        },
        {
            "buffer" : 0,
            "byteLength" : 1608,
            "byteOffset" : 33680
        },
        {
            "buffer" : 0,
            "byteLength" : 568,
            "byteOffset" : 35288
        },
        {
            "buffer" : 0,
            "byteLength" : 2272,
            "byteOffset" : 35856
        },
        {
            "buffer" : 0,
            "byteLength" : 1608,
            "byteOffset" : 38128
        },
        {
            "buffer" : 0,
            "byteLength" : 2272,
            "byteOffset" : 39736
        }
    ],
    "buffers" : [
        {
            "byteLength" : 42008,
            "uri" : "data:application/octet-stream;base64,"
        }
    ]
}
