v 0.770000 0.882352 -0.015910
v 0.770000 -0.935948 -0.015910
v 0.770000 0.882352 0.015910
v 0.770000 -0.935948 0.015910
v -0.770000 0.882352 -0.015910
v -0.770000 -0.935948 -0.015910
v -0.770000 0.882352 0.015910
v -0.770000 -0.935948 0.015910
v -0.770000 -1.000000 0.000000
v -0.000000 -1.367661 -0.015910
v 0.770000 0.000000 -0.040000
v -0.770000 0.000000 0.040000
v 0.770000 0.000000 0.040000
v -0.770000 0.000000 -0.040000
v 0.000000 1.000000 0.040000
v 0.770000 0.883871 0.000000
v -0.000000 -1.367661 0.015910
v -0.770000 0.883871 0.000000
v 0.000000 1.000000 -0.040000
v 0.770000 -1.000000 0.000000
v 0.000000 0.000000 -0.040000
v 0.770000 0.000000 0.000000
v 0.000000 -1.474853 0.000000
v -0.770000 0.000000 0.000000
v 0.000000 0.000000 0.040000
v 0.000000 1.000000 0.000000
vt 0.750000 0.625000
vt 0.875000 0.625000
vt 0.875000 0.750000
vt 0.750000 0.750000
vt 0.500000 0.875000
vt 0.625000 0.875000
vt 0.625000 1.000000
vt 0.500000 1.000000
vt 0.500000 0.125000
vt 0.625000 0.125000
vt 0.625000 0.250000
vt 0.500000 0.250000
vt 0.250000 0.625000
vt 0.375000 0.625000
vt 0.375000 0.750000
vt 0.250000 0.750000
vt 0.500000 0.625000
vt 0.625000 0.625000
vt 0.625000 0.750000
vt 0.500000 0.750000
vt 0.500000 0.375000
vt 0.625000 0.375000
vt 0.625000 0.500000
vt 0.500000 0.500000
vt 0.375000 0.375000
vt 0.375000 0.500000
vt 0.375000 0.250000
vt 0.125000 0.625000
vt 0.125000 0.750000
vt 0.125000 0.500000
vt 0.250000 0.500000
vt 0.375000 0.125000
vt 0.375000 0.000000
vt 0.500000 0.000000
vt 0.625000 0.000000
vt 0.375000 0.875000
vt 0.375000 1.000000
vt 0.750000 0.500000
vt 0.875000 0.500000
vn -0.1504 0.9883 0.0268
vn -0.0166 0.0128 0.9998
vn -1.0000 0.0000 -0.0000
vn 0.1069 -0.1816 0.9775
vn 1.0000 0.0000 0.0000
vn 0.0166 0.0128 -0.9998
vn 0.0059 -0.0209 -0.9998
vn -0.0059 -0.0209 -0.9998
vn -0.0166 0.0128 -0.9998
vn -0.1069 -0.1816 0.9775
vn -0.1069 -0.1816 -0.9775
vn 0.1069 -0.1816 -0.9775
vn -0.0059 -0.0209 0.9998
vn 0.0059 -0.0209 0.9998
vn 0.0166 0.0128 0.9998
vn 0.1504 0.9883 0.0268
vn 0.1504 0.9883 -0.0268
vn -0.1504 0.9883 -0.0268
usemtl Material
s off
f 26/1/1 18/2/1 7/3/1 15/4/1
f 25/5/2 15/6/2 7/7/2 12/8/2
f 24/9/3 18/10/3 5/11/3 14/12/3
f 23/13/4 20/14/4 4/15/4 17/16/4
f 22/17/5 16/18/5 3/19/5 13/20/5
f 21/21/6 19/22/6 1/23/6 11/24/6
f 10/25/7 21/21/7 11/24/7 2/26/7
f 6/27/8 14/12/8 21/21/8 10/25/8
f 14/12/9 5/11/9 19/22/9 21/21/9
f 20/14/5 22/17/5 13/20/5 4/15/5
f 2/26/5 11/24/5 22/17/5 20/14/5
f 11/24/5 1/23/5 16/18/5 22/17/5
f 9/28/10 23/13/10 17/16/10 8/29/10
f 6/30/11 10/31/11 23/13/11 9/28/11
f 10/31/12 2/26/12 20/14/12 23/13/12
f 9/32/3 24/9/3 14/12/3 6/27/3
f 8/33/3 12/34/3 24/9/3 9/32/3
f 12/34/3 7/35/3 18/10/3 24/9/3
f 17/36/13 25/5/13 12/8/13 8/37/13
f 4/15/14 13/20/14 25/5/14 17/36/14
f 13/20/15 3/19/15 15/6/15 25/5/15
f 16/18/16 26/1/16 15/4/16 3/19/16
f 1/23/17 19/38/17 26/1/17 16/18/17
f 19/38/18 5/39/18 18/2/18 26/1/18
